<svg width="60" height="36" viewBox="0 0 60 36" fill="none" xmlns="http://www.w3.org/2000/svg">
<g style="mix-blend-mode:darken" filter="url(#filter0_bd)">
<path d="M24.882 1.40625V18.2637C24.882 21.0645 24.0031 23.2793 22.2453 24.9082C20.4992 26.5371 18.1086 27.3516 15.0734 27.3516C12.0852 27.3516 9.71211 26.5605 7.9543 24.9785C6.19648 23.3965 5.3 21.2227 5.26484 18.457V1.40625H10.5383V18.2988C10.5383 19.9746 10.9367 21.1992 11.7336 21.9727C12.5422 22.7344 13.6555 23.1152 15.0734 23.1152C18.0383 23.1152 19.5441 21.5566 19.591 18.4395V1.40625H24.882ZM55.4363 27H50.1629V16.0312H39.8797V27H34.6062V1.40625H39.8797V11.7773H50.1629V1.40625H55.4363V27Z" fill="#56CCF2"/>
<path d="M24.882 1.40625H25.382V0.90625H24.882V1.40625ZM22.2453 24.9082L21.9055 24.5415L21.9042 24.5426L22.2453 24.9082ZM5.26484 18.457L4.7648 18.457L4.76488 18.4634L5.26484 18.457ZM5.26484 1.40625V0.90625H4.76484V1.40625H5.26484ZM10.5383 1.40625H11.0383V0.90625H10.5383V1.40625ZM11.7336 21.9727L11.3853 22.3315L11.3907 22.3366L11.7336 21.9727ZM19.591 18.4395L20.091 18.447V18.4395H19.591ZM19.591 1.40625V0.90625H19.091V1.40625H19.591ZM24.382 1.40625V18.2637H25.382V1.40625H24.382ZM24.382 18.2637C24.382 20.9509 23.5438 23.0233 21.9055 24.5415L22.5852 25.2749C24.4625 23.5353 25.382 21.178 25.382 18.2637H24.382ZM21.9042 24.5426C20.2739 26.0635 18.0177 26.8516 15.0734 26.8516V27.8516C18.1995 27.8516 20.7246 27.0107 22.5864 25.2738L21.9042 24.5426ZM15.0734 26.8516C12.1749 26.8516 9.93246 26.0862 8.28878 24.6069L7.61981 25.3502C9.49175 27.0349 11.9954 27.8516 15.0734 27.8516V26.8516ZM8.28878 24.6069C6.65245 23.1342 5.79851 21.1026 5.7648 18.4507L4.76488 18.4634C4.80148 21.3427 5.74052 23.6588 7.61981 25.3502L8.28878 24.6069ZM5.76484 18.457V1.40625H4.76484V18.457H5.76484ZM5.26484 1.90625H10.5383V0.90625H5.26484V1.90625ZM10.0383 1.40625V18.2988H11.0383V1.40625H10.0383ZM10.0383 18.2988C10.0383 20.0416 10.4516 21.4251 11.3854 22.3314L12.0818 21.6139C11.4219 20.9733 11.0383 19.9076 11.0383 18.2988H10.0383ZM11.3907 22.3366C12.3157 23.2079 13.5646 23.6152 15.0734 23.6152V22.6152C13.7463 22.6152 12.7687 22.2608 12.0764 21.6087L11.3907 22.3366ZM15.0734 23.6152C16.6401 23.6152 17.9084 23.2021 18.786 22.2937C19.6594 21.3898 20.0664 20.0772 20.091 18.447L19.0911 18.4319C19.0687 19.9189 18.6994 20.9442 18.0669 21.5989C17.4387 22.249 16.4716 22.6152 15.0734 22.6152V23.6152ZM20.091 18.4395V1.40625H19.091V18.4395H20.091ZM19.591 1.90625H24.882V0.90625H19.591V1.90625ZM55.4363 27V27.5H55.9363V27H55.4363ZM50.1629 27H49.6629V27.5H50.1629V27ZM50.1629 16.0312H50.6629V15.5312H50.1629V16.0312ZM39.8797 16.0312V15.5312H39.3797V16.0312H39.8797ZM39.8797 27V27.5H40.3797V27H39.8797ZM34.6062 27H34.1062V27.5H34.6062V27ZM34.6062 1.40625V0.90625H34.1062V1.40625H34.6062ZM39.8797 1.40625H40.3797V0.90625H39.8797V1.40625ZM39.8797 11.7773H39.3797V12.2773H39.8797V11.7773ZM50.1629 11.7773V12.2773H50.6629V11.7773H50.1629ZM50.1629 1.40625V0.90625H49.6629V1.40625H50.1629ZM55.4363 1.40625H55.9363V0.90625H55.4363V1.40625ZM55.4363 26.5H50.1629V27.5H55.4363V26.5ZM50.6629 27V16.0312H49.6629V27H50.6629ZM50.1629 15.5312H39.8797V16.5312H50.1629V15.5312ZM39.3797 16.0312V27H40.3797V16.0312H39.3797ZM39.8797 26.5H34.6062V27.5H39.8797V26.5ZM35.1062 27V1.40625H34.1062V27H35.1062ZM34.6062 1.90625H39.8797V0.90625H34.6062V1.90625ZM39.3797 1.40625V11.7773H40.3797V1.40625H39.3797ZM39.8797 12.2773H50.1629V11.2773H39.8797V12.2773ZM50.6629 11.7773V1.40625H49.6629V11.7773H50.6629ZM50.1629 1.90625H55.4363V0.90625H50.1629V1.90625ZM54.9363 1.40625V27H55.9363V1.40625H54.9363Z" fill="black" style="mix-blend-mode:color"/>
</g>
<defs>
<filter id="filter0_bd" x="0.764648" y="-3.09375" width="59.1715" height="38.9453" filterUnits="userSpaceOnUse" color-interpolation-filters="sRGB">
<feFlood flood-opacity="0" result="BackgroundImageFix"/>
<feGaussianBlur in="BackgroundImage" stdDeviation="2"/>
<feComposite in2="SourceAlpha" operator="in" result="effect1_backgroundBlur"/>
<feColorMatrix in="SourceAlpha" type="matrix" values="0 0 0 0 0 0 0 0 0 0 0 0 0 0 0 0 0 0 127 0"/>
<feOffset dy="4"/>
<feGaussianBlur stdDeviation="2"/>
<feColorMatrix type="matrix" values="0 0 0 0 0 0 0 0 0 0 0 0 0 0 0 0 0 0 0.25 0"/>
<feBlend mode="normal" in2="effect1_backgroundBlur" result="effect2_dropShadow"/>
<feBlend mode="normal" in="SourceGraphic" in2="effect2_dropShadow" result="shape"/>
</filter>
</defs>
</svg>
