<svg width="55" height="36" viewBox="0 0 55 36" fill="none" xmlns="http://www.w3.org/2000/svg">
<g style="mix-blend-mode:darken" filter="url(#filter0_bd)">
<path d="M25.082 1.40625V18.2637C25.082 21.0645 24.2031 23.2793 22.4453 24.9082C20.6992 26.5371 18.3086 27.3516 15.2734 27.3516C12.2852 27.3516 9.91211 26.5605 8.1543 24.9785C6.39648 23.3965 5.5 21.2227 5.46484 18.457V1.40625H10.7383V18.2988C10.7383 19.9746 11.1367 21.1992 11.9336 21.9727C12.7422 22.7344 13.8555 23.1152 15.2734 23.1152C18.2383 23.1152 19.7441 21.5566 19.791 18.4395V1.40625H25.082ZM50.2363 27H44.9629V16.0312H34.6797V27H29.4062V1.40625H34.6797V11.7773H44.9629V1.40625H50.2363V27Z" fill="#56CCF2"/>
<path d="M25.082 1.40625H25.582V0.90625H25.082V1.40625ZM22.4453 24.9082L22.1055 24.5415L22.1042 24.5426L22.4453 24.9082ZM5.46484 18.457L4.9648 18.457L4.96488 18.4634L5.46484 18.457ZM5.46484 1.40625V0.90625H4.96484V1.40625H5.46484ZM10.7383 1.40625H11.2383V0.90625H10.7383V1.40625ZM11.9336 21.9727L11.5853 22.3315L11.5907 22.3366L11.9336 21.9727ZM19.791 18.4395L20.291 18.447V18.4395H19.791ZM19.791 1.40625V0.90625H19.291V1.40625H19.791ZM24.582 1.40625V18.2637H25.582V1.40625H24.582ZM24.582 18.2637C24.582 20.9509 23.7438 23.0233 22.1055 24.5415L22.7852 25.2749C24.6625 23.5353 25.582 21.178 25.582 18.2637H24.582ZM22.1042 24.5426C20.4739 26.0635 18.2177 26.8516 15.2734 26.8516V27.8516C18.3995 27.8516 20.9246 27.0107 22.7864 25.2738L22.1042 24.5426ZM15.2734 26.8516C12.3749 26.8516 10.1325 26.0862 8.48878 24.6069L7.81981 25.3502C9.69175 27.0349 12.1954 27.8516 15.2734 27.8516V26.8516ZM8.48878 24.6069C6.85245 23.1342 5.99851 21.1026 5.9648 18.4507L4.96488 18.4634C5.00149 21.3427 5.94052 23.6588 7.81981 25.3502L8.48878 24.6069ZM5.96484 18.457V1.40625H4.96484V18.457H5.96484ZM5.46484 1.90625H10.7383V0.90625H5.46484V1.90625ZM10.2383 1.40625V18.2988H11.2383V1.40625H10.2383ZM10.2383 18.2988C10.2383 20.0416 10.6516 21.4251 11.5854 22.3314L12.2818 21.6139C11.6219 20.9733 11.2383 19.9076 11.2383 18.2988H10.2383ZM11.5907 22.3366C12.5157 23.2079 13.7646 23.6152 15.2734 23.6152V22.6152C13.9463 22.6152 12.9687 22.2608 12.2764 21.6087L11.5907 22.3366ZM15.2734 23.6152C16.8401 23.6152 18.1084 23.2021 18.986 22.2937C19.8594 21.3898 20.2664 20.0772 20.291 18.447L19.2911 18.4319C19.2687 19.9189 18.8994 20.9442 18.2669 21.5989C17.6387 22.249 16.6716 22.6152 15.2734 22.6152V23.6152ZM20.291 18.4395V1.40625H19.291V18.4395H20.291ZM19.791 1.90625H25.082V0.90625H19.791V1.90625ZM50.2363 27V27.5H50.7363V27H50.2363ZM44.9629 27H44.4629V27.5H44.9629V27ZM44.9629 16.0312H45.4629V15.5312H44.9629V16.0312ZM34.6797 16.0312V15.5312H34.1797V16.0312H34.6797ZM34.6797 27V27.5H35.1797V27H34.6797ZM29.4062 27H28.9062V27.5H29.4062V27ZM29.4062 1.40625V0.90625H28.9062V1.40625H29.4062ZM34.6797 1.40625H35.1797V0.90625H34.6797V1.40625ZM34.6797 11.7773H34.1797V12.2773H34.6797V11.7773ZM44.9629 11.7773V12.2773H45.4629V11.7773H44.9629ZM44.9629 1.40625V0.90625H44.4629V1.40625H44.9629ZM50.2363 1.40625H50.7363V0.90625H50.2363V1.40625ZM50.2363 26.5H44.9629V27.5H50.2363V26.5ZM45.4629 27V16.0312H44.4629V27H45.4629ZM44.9629 15.5312H34.6797V16.5312H44.9629V15.5312ZM34.1797 16.0312V27H35.1797V16.0312H34.1797ZM34.6797 26.5H29.4062V27.5H34.6797V26.5ZM29.9062 27V1.40625H28.9062V27H29.9062ZM29.4062 1.90625H34.6797V0.90625H29.4062V1.90625ZM34.1797 1.40625V11.7773H35.1797V1.40625H34.1797ZM34.6797 12.2773H44.9629V11.2773H34.6797V12.2773ZM45.4629 11.7773V1.40625H44.4629V11.7773H45.4629ZM44.9629 1.90625H50.2363V0.90625H44.9629V1.90625ZM49.7363 1.40625V27H50.7363V1.40625H49.7363Z" fill="black" style="mix-blend-mode:color"/>
</g>
<defs>
<filter id="filter0_bd" x="0.964844" y="-3.09375" width="53.7715" height="38.9453" filterUnits="userSpaceOnUse" color-interpolation-filters="sRGB">
<feFlood flood-opacity="0" result="BackgroundImageFix"/>
<feGaussianBlur in="BackgroundImage" stdDeviation="2"/>
<feComposite in2="SourceAlpha" operator="in" result="effect1_backgroundBlur"/>
<feColorMatrix in="SourceAlpha" type="matrix" values="0 0 0 0 0 0 0 0 0 0 0 0 0 0 0 0 0 0 127 0"/>
<feOffset dy="4"/>
<feGaussianBlur stdDeviation="2"/>
<feColorMatrix type="matrix" values="0 0 0 0 0 0 0 0 0 0 0 0 0 0 0 0 0 0 0.25 0"/>
<feBlend mode="normal" in2="effect1_backgroundBlur" result="effect2_dropShadow"/>
<feBlend mode="normal" in="SourceGraphic" in2="effect2_dropShadow" result="shape"/>
</filter>
</defs>
</svg>
